<svg id="app_store_badge" xmlns="http://www.w3.org/2000/svg" viewBox="0 0 99.998 34">
  <defs>
    <style>
      .cls-1 {
        fill: #fff;
      }
    </style>
  </defs>
  <path id="path6" d="M100,29.4A4.51,4.51,0,0,1,95.578,34H4.42A4.511,4.511,0,0,1,0,29.4V4.595A4.511,4.511,0,0,1,4.42,0H95.578A4.51,4.51,0,0,1,100,4.595V29.4Z"/>
  <g id="g3447" transform="translate(7.639 4.842)">
    <g id="g3449">
      <path id="path3451" class="cls-1" d="M73.746,63.246a5.387,5.387,0,0,1,2.46-4.5A5.225,5.225,0,0,0,72.04,56.4c-1.753-.192-3.453,1.09-4.346,1.09-.911,0-2.285-1.072-3.767-1.04a5.523,5.523,0,0,0-4.669,2.96c-2.019,3.633-.513,8.973,1.421,11.909.968,1.438,2.1,3.044,3.578,2.988,1.448-.062,1.989-.959,3.736-.959,1.731,0,2.239.959,3.749.923,1.554-.026,2.532-1.445,3.466-2.9a12.1,12.1,0,0,0,1.585-3.355A5.163,5.163,0,0,1,73.746,63.246Z" transform="translate(-58.299 -50.681)"/>
      <path id="path3453" class="cls-1" d="M108.713,32.121a5.423,5.423,0,0,0,1.164-3.787,5.142,5.142,0,0,0-4.542,5.448,4.216,4.216,0,0,0,3.379-1.661Z" transform="translate(-96.117 -28.334)"/>
    </g>
  </g>
  <g id="g3455" transform="translate(29.839 12.413)">
    <path id="path3457" class="cls-1" d="M170.727,79.994h-1.7l-.931-3.04h-3.236l-.887,3.04H162.32l3.206-10.351h1.98Zm-2.911-4.316-.842-2.7q-.134-.414-.5-1.95h-.03q-.147.66-.473,1.95l-.827,2.7h2.674Z" transform="translate(-162.32 -69.492)"/>
    <path id="path3459" class="cls-1" d="M219.033,86.89a4.345,4.345,0,0,1-.99,3.009,2.844,2.844,0,0,1-2.2.983,2.178,2.178,0,0,1-2.039-1.059h-.03v3.932h-1.6V85.707q0-1.2-.059-2.457h1.4l.089,1.183h.03a2.776,2.776,0,0,1,4.543-.292,4.219,4.219,0,0,1,.85,2.749Zm-1.625.061a3.163,3.163,0,0,0-.473-1.8,1.65,1.65,0,0,0-2.46-.331,1.9,1.9,0,0,0-.628,1.068,2.251,2.251,0,0,0-.074.506v1.244a2.041,2.041,0,0,0,.48,1.375,1.565,1.565,0,0,0,1.248.561,1.614,1.614,0,0,0,1.4-.722A3.269,3.269,0,0,0,217.408,86.951Z" transform="translate(-202.382 -80.211)"/>
    <path id="path3461" class="cls-1" d="M261.279,86.89a4.342,4.342,0,0,1-.991,3.009,2.842,2.842,0,0,1-2.2.983,2.176,2.176,0,0,1-2.038-1.059h-.03v3.932h-1.6V85.707q0-1.2-.059-2.457h1.4l.089,1.183h.03a2.776,2.776,0,0,1,4.544-.292,4.231,4.231,0,0,1,.849,2.749Zm-1.625.061a3.163,3.163,0,0,0-.474-1.8,1.65,1.65,0,0,0-2.46-.331,1.9,1.9,0,0,0-.627,1.068,2.3,2.3,0,0,0-.074.506v1.244a2.048,2.048,0,0,0,.479,1.375,1.569,1.569,0,0,0,1.25.561,1.614,1.614,0,0,0,1.4-.722A3.27,3.27,0,0,0,259.654,86.951Z" transform="translate(-236.37 -80.211)"/>
    <path id="path3463" class="cls-1" d="M311.539,76.5a2.81,2.81,0,0,1-.884,2.15,3.825,3.825,0,0,1-2.713.906,4.607,4.607,0,0,1-2.581-.645l.37-1.382a4.249,4.249,0,0,0,2.306.661,2.123,2.123,0,0,0,1.4-.423,1.4,1.4,0,0,0,.5-1.131,1.472,1.472,0,0,0-.414-1.061,3.813,3.813,0,0,0-1.374-.8q-2.615-1.014-2.614-2.968a2.671,2.671,0,0,1,.917-2.091A3.525,3.525,0,0,1,308.9,68.9a4.68,4.68,0,0,1,2.26.492l-.4,1.352a3.8,3.8,0,0,0-1.906-.476,1.881,1.881,0,0,0-1.314.43,1.251,1.251,0,0,0-.4.937,1.285,1.285,0,0,0,.457,1.013,5.11,5.11,0,0,0,1.449.8,4.9,4.9,0,0,1,1.891,1.258A2.694,2.694,0,0,1,311.539,76.5Z" transform="translate(-277.396 -68.897)"/>
    <path id="path3465" class="cls-1" d="M345.945,77.8h-1.758v3.624q0,1.382.931,1.382a2.735,2.735,0,0,0,.709-.077l.044,1.259a3.489,3.489,0,0,1-1.241.184,1.877,1.877,0,0,1-1.478-.6,3.025,3.025,0,0,1-.532-2.012V77.8h-1.048V76.557h1.048V75.191l1.567-.492v1.858h1.758Z" transform="translate(-306.528 -73.52)"/>
    <path id="path3467" class="cls-1" d="M375.581,86.923a4.2,4.2,0,0,1-.946,2.826A3.316,3.316,0,0,1,372,90.885a3.154,3.154,0,0,1-2.518-1.09,4.064,4.064,0,0,1-.938-2.749,4.151,4.151,0,0,1,.968-2.84,3.287,3.287,0,0,1,2.607-1.106,3.22,3.22,0,0,1,2.541,1.09,4.019,4.019,0,0,1,.917,2.732Zm-1.655.054a3.461,3.461,0,0,0-.428-1.771,1.568,1.568,0,0,0-1.432-.893,1.591,1.591,0,0,0-1.463.893,3.529,3.529,0,0,0-.428,1.8,3.457,3.457,0,0,0,.428,1.77,1.6,1.6,0,0,0,2.881-.016A3.472,3.472,0,0,0,373.926,86.977Z" transform="translate(-328.229 -80.214)"/>
    <path id="path3469" class="cls-1" d="M415.237,84.708a2.668,2.668,0,0,0-.5-.046,1.489,1.489,0,0,0-1.3.661,2.557,2.557,0,0,0-.4,1.474v3.916h-1.595l.015-5.113q0-1.29-.06-2.35h1.39l.058,1.428h.044a2.554,2.554,0,0,1,.8-1.182,1.881,1.881,0,0,1,1.153-.4,2.466,2.466,0,0,1,.4.03Z" transform="translate(-362.7 -80.211)"/>
    <path id="path3471" class="cls-1" d="M441.281,86.574a4.043,4.043,0,0,1-.058.752h-4.786a2.2,2.2,0,0,0,.694,1.69,2.312,2.312,0,0,0,1.565.522,5.115,5.115,0,0,0,1.937-.353l.25,1.151a5.788,5.788,0,0,1-2.407.461,3.415,3.415,0,0,1-2.623-1.021,3.859,3.859,0,0,1-.953-2.741,4.387,4.387,0,0,1,.887-2.81,3.012,3.012,0,0,1,2.51-1.2,2.644,2.644,0,0,1,2.35,1.2A4.154,4.154,0,0,1,441.281,86.574Zm-1.521-.43a2.323,2.323,0,0,0-.31-1.275,1.381,1.381,0,0,0-1.271-.691,1.5,1.5,0,0,0-1.27.676,2.532,2.532,0,0,0-.472,1.29h3.323Z" transform="translate(-381.609 -80.156)"/>
  </g>
  <g id="g3473" transform="translate(30.364 6.763)">
    <g id="g3475">
      <path id="path3477" class="cls-1" d="M96.017,16.077a1.461,1.461,0,0,1-.444,1.16,1.72,1.72,0,0,1-1.168.359,5.211,5.211,0,0,1-.643-.034V14.756a4.572,4.572,0,0,1,.758-.059,1.59,1.59,0,0,1,1.087.326A1.343,1.343,0,0,1,96.017,16.077Zm-.464.013a1.068,1.068,0,0,0-.254-.766.98.98,0,0,0-.743-.267,1.793,1.793,0,0,0-.354.03v2.133a2.235,2.235,0,0,0,.3.013,1.018,1.018,0,0,0,.779-.292,1.2,1.2,0,0,0,.275-.851Z" transform="translate(-93.762 -14.57)"/>
      <path id="path3479" class="cls-1" d="M109.9,19.565a1.156,1.156,0,0,1-.261.779.914.914,0,0,1-.725.313.868.868,0,0,1-.694-.3,1.121,1.121,0,0,1-.258-.757,1.144,1.144,0,0,1,.267-.783.907.907,0,0,1,.719-.3.888.888,0,0,1,.7.3A1.112,1.112,0,0,1,109.9,19.565Zm-.456.015a.959.959,0,0,0-.118-.488.432.432,0,0,0-.395-.246.439.439,0,0,0-.4.246.972.972,0,0,0-.118.5.959.959,0,0,0,.118.488.442.442,0,0,0,.4.246.437.437,0,0,0,.395-.25A.953.953,0,0,0,109.446,19.579Z" transform="translate(-105.188 -17.61)"/>
      <path id="path3481" class="cls-1" d="M122.946,18.718l-.619,2.056h-.4l-.256-.893q-.1-.334-.159-.664H121.5a5.021,5.021,0,0,1-.159.664l-.272.893h-.408l-.582-2.056h.452l.224.978q.081.347.134.66h.008q.049-.258.163-.656l.281-.982h.358l.269.961q.1.351.159.677h.012a6.691,6.691,0,0,1,.134-.677l.24-.961h.432Z" transform="translate(-114.934 -17.774)"/>
      <path id="path3483" class="cls-1" d="M139.269,20.6h-.44V19.427q0-.544-.4-.544a.391.391,0,0,0-.318.15.544.544,0,0,0-.122.352V20.6h-.44V19.136q0-.271-.016-.589h.387l.021.322h.012a.65.65,0,0,1,.228-.248.722.722,0,0,1,.4-.116.619.619,0,0,1,.46.186.926.926,0,0,1,.228.681V20.6Z" transform="translate(-128.977 -17.605)"/>
      <path id="path3485" class="cls-1" d="M150.8,17.074h-.439v-3h.439v3Z" transform="translate(-139.296 -14.074)"/>
      <path id="path3487" class="cls-1" d="M157.881,19.565a1.156,1.156,0,0,1-.261.779.914.914,0,0,1-.725.313.867.867,0,0,1-.694-.3,1.121,1.121,0,0,1-.258-.757,1.144,1.144,0,0,1,.267-.783.907.907,0,0,1,.718-.3.889.889,0,0,1,.7.3A1.112,1.112,0,0,1,157.881,19.565Zm-.457.015a.959.959,0,0,0-.118-.488.432.432,0,0,0-.394-.246.438.438,0,0,0-.4.246.972.972,0,0,0-.118.5.959.959,0,0,0,.118.488.442.442,0,0,0,.4.246.436.436,0,0,0,.394-.25A.948.948,0,0,0,157.424,19.579Z" transform="translate(-143.786 -17.61)"/>
      <path id="path3489" class="cls-1" d="M170.059,20.61h-.395l-.033-.237h-.012a.668.668,0,0,1-.578.284.585.585,0,0,1-.452-.186.6.6,0,0,1-.155-.419.645.645,0,0,1,.3-.575,1.527,1.527,0,0,1,.853-.195v-.038a.361.361,0,0,0-.411-.406.9.9,0,0,0-.516.152l-.089-.3a1.231,1.231,0,0,1,.679-.178q.776,0,.776.851v.757A3.336,3.336,0,0,0,170.059,20.61ZM169.6,19.9v-.317q-.728-.013-.728.414a.317.317,0,0,0,.084.241.3.3,0,0,0,.215.08.433.433,0,0,0,.269-.1.391.391,0,0,0,.152-.243A.4.4,0,0,0,169.6,19.9Z" transform="translate(-153.836 -17.61)"/>
      <path id="path3491" class="cls-1" d="M181.755,17.074h-.39l-.021-.33h-.012a.654.654,0,0,1-.635.377.734.734,0,0,1-.594-.292,1.167,1.167,0,0,1-.236-.757,1.223,1.223,0,0,1,.256-.808.776.776,0,0,1,.611-.288.586.586,0,0,1,.557.279h.008v-1.18h.44V16.52q0,.3.016.554Zm-.456-.867v-.343a.7.7,0,0,0-.012-.144.525.525,0,0,0-.159-.277.423.423,0,0,0-.294-.112.446.446,0,0,0-.387.2.9.9,0,0,0-.141.52.835.835,0,0,0,.135.5.448.448,0,0,0,.384.2.418.418,0,0,0,.348-.169.578.578,0,0,0,.126-.376Z" transform="translate(-163.032 -14.074)"/>
      <path id="path3493" class="cls-1" d="M200.794,19.565a1.156,1.156,0,0,1-.261.779.913.913,0,0,1-.725.313.87.87,0,0,1-.694-.3,1.121,1.121,0,0,1-.258-.757,1.144,1.144,0,0,1,.267-.783.908.908,0,0,1,.719-.3.887.887,0,0,1,.7.3A1.112,1.112,0,0,1,200.794,19.565Zm-.456.015a.959.959,0,0,0-.118-.488.433.433,0,0,0-.395-.246.44.44,0,0,0-.4.246.972.972,0,0,0-.118.5.959.959,0,0,0,.118.488.442.442,0,0,0,.794,0A.957.957,0,0,0,200.339,19.579Z" transform="translate(-178.31 -17.61)"/>
      <path id="path3495" class="cls-1" d="M213.731,20.6h-.439V19.427q0-.544-.4-.544a.389.389,0,0,0-.317.15.542.542,0,0,0-.122.352V20.6h-.44V19.136q0-.271-.016-.589h.386l.021.322h.012a.657.657,0,0,1,.228-.248.724.724,0,0,1,.4-.116.618.618,0,0,1,.46.186.925.925,0,0,1,.228.681V20.6Z" transform="translate(-188.881 -17.605)"/>
      <path id="path3497" class="cls-1" d="M231.048,17.052h-.484v1c0,.254.086.381.256.381a.747.747,0,0,0,.2-.021l.011.347a.954.954,0,0,1-.342.051.516.516,0,0,1-.407-.165.829.829,0,0,1-.147-.554V17.052h-.289v-.342h.289v-.377l.431-.135v.512h.484v.343Z" transform="translate(-203.238 -15.766)"/>
      <path id="path3499" class="cls-1" d="M240.846,17.074h-.44V15.905q0-.553-.4-.553a.422.422,0,0,0-.42.321.6.6,0,0,0-.021.164v1.237h-.439v-3h.439v1.239h.008a.659.659,0,0,1,.594-.338.6.6,0,0,1,.452.186.959.959,0,0,1,.224.69v1.223Z" transform="translate(-210.708 -14.074)"/>
      <path id="path3501" class="cls-1" d="M252.964,19.469a1.148,1.148,0,0,1-.016.207h-1.319a.611.611,0,0,0,.191.465.639.639,0,0,0,.432.144,1.408,1.408,0,0,0,.533-.1l.069.318a1.6,1.6,0,0,1-.664.127.939.939,0,0,1-.722-.281,1.061,1.061,0,0,1-.262-.755,1.207,1.207,0,0,1,.244-.774.829.829,0,0,1,.692-.33.727.727,0,0,1,.647.33,1.13,1.13,0,0,1,.176.647Zm-.42-.118a.635.635,0,0,0-.085-.351.381.381,0,0,0-.35-.191.413.413,0,0,0-.35.186.708.708,0,0,0-.131.356Z" transform="translate(-220.424 -17.594)"/>
    </g>
  </g>
</svg>
